<?xml version="1.0" standalone="no"?>
<!DOCTYPE svg PUBLIC "-//W3C//DTD SVG 20010904//EN"
 "http://www.w3.org/TR/2001/REC-SVG-20010904/DTD/svg10.dtd">
<svg version="1.0" xmlns="http://www.w3.org/2000/svg"
 width="512.000000pt" height="512.000000pt" viewBox="0 0 512.000000 512.000000"
 preserveAspectRatio="xMidYMid meet">
<metadata>
Created by potrace 1.14, written by Peter Selinger 2001-2017
</metadata>
<g transform="translate(0.000000,512.000000) scale(0.100000,-0.100000)"
fill="#000000" stroke="none">
<path d="M0 2560 l0 -2560 2560 0 2560 0 0 2560 0 2560 -2560 0 -2560 0 0
-2560z m2840 2385 c535 -59 967 -250 1370 -604 374 -328 621 -722 735 -1171
14 -54 25 -106 25 -114 0 -14 -63 -16 -615 -16 l-615 0 -41 82 c-123 245 -329
455 -552 563 -118 57 -249 99 -357 115 -121 17 -346 15 -458 -4 -378 -67 -722
-331 -897 -690 -164 -335 -164 -754 -2 -1090 66 -136 146 -244 263 -356 257
-246 523 -353 879 -351 220 0 374 35 555 125 138 69 284 178 370 278 l32 38
-561 0 -561 0 0 445 0 445 1295 0 1295 0 0 -197 c0 -332 -62 -603 -209 -908
-119 -249 -245 -422 -465 -640 -280 -278 -538 -448 -886 -583 -269 -104 -646
-161 -970 -148 -650 28 -1184 265 -1660 738 -431 428 -654 920 -691 1528 -24
406 53 799 228 1151 225 456 618 855 1093 1111 118 64 354 155 486 189 102 25
340 64 444 72 121 9 349 5 470 -8z"/>
</g>
</svg>
